<svg xmlns="http://www.w3.org/2000/svg" width="26.813" height="23.132" viewBox="0 0 26.813 23.132">
  <path id="Path_12" data-name="Path 12" d="M26.594,10.527H20.756L15.418,2.532a1.21,1.21,0,0,0-1.012-.512,1.191,1.191,0,0,0-1.012.524L8.057,10.527H2.219A1.222,1.222,0,0,0,1,11.746a1.027,1.027,0,0,0,.049.329l3.1,11.3a2.424,2.424,0,0,0,2.34,1.779H22.328a2.449,2.449,0,0,0,2.352-1.779l3.1-11.3.037-.329A1.222,1.222,0,0,0,26.594,10.527ZM14.406,5.408l3.413,5.119H10.994Zm7.922,17.306L6.5,22.727,3.815,12.964H25.009Z" transform="translate(-1 -2.02)"/>
</svg>